<svg xmlns="http://www.w3.org/2000/svg" width="1280" height="640" viewBox="0 0 1280 640"><rect width="1280" height="640" fill="#102C2B"/><g transform="scale(0.8)"><g fill="none" stroke="#29534B" stroke-width="3"><path d="M950 -80V150Q950 220 1020 220H1610"/><path d="M840 -80V320Q840 370 890 370H1320Q1400 370 1400 450V1000"/><path d="M1200 -40V1000"/><path d="M0 640H900Q980 640 980 720V1000"/><path d="M1090 -40V1000"/></g><path d="M1080 700L1080 580Q1080 530 1130 530H1340Q1390 530 1390 480V330" fill="none" stroke="#87E9CA" stroke-width="10" stroke-linecap="round"/><circle cx="1080" cy="700" r="16" fill="#87E9CA"/><path d="M1368 349L1390 322L1412 349" fill="none" stroke="#87E9CA" stroke-width="10" stroke-linecap="round" stroke-linejoin="round"/><g transform="translate(64 102) scale(.19)"><path d="M296 366L476 674Q490 698 508 662L696 314" fill="none" stroke="#87E9CA" stroke-width="82" stroke-linecap="round" stroke-linejoin="round"/><path d="M559 314H696V452" fill="none" stroke="#FFFFFF" stroke-width="82" stroke-linecap="round" stroke-linejoin="round"/><circle cx="296" cy="366" r="41" fill="#FFFFFF"/></g><text x="64" y="448" fill="white" font-family="Arial,Helvetica,sans-serif" font-size="112" font-weight="700" letter-spacing="-6">Velunivo</text><text x="70" y="518" fill="#87E9CA" font-family="Arial,Helvetica,sans-serif" font-size="40">Your route. Your riding speed.</text><text x="70" y="650" fill="#B6CFC7" font-family="Arial,Helvetica,sans-serif" font-size="25">Navigation for e-scooters and e-bikes</text><text x="70" y="692" fill="#B6CFC7" font-family="Arial,Helvetica,sans-serif" font-size="25">iPhone · iPad · Android · Web</text></g></svg>